<mxfile host="app.diagrams.net" modified="2023-04-04T23:33:21.973Z" agent="Mozilla/5.0 (Windows NT 10.0; Win64; x64) AppleWebKit/537.36 (KHTML, like Gecko) Chrome/111.0.0.0 Safari/537.36" etag="RHuFGezZOhNp8VLuI0vq" version="21.1.4" type="device">
  <diagram name="Page-1" id="xbeYJgNpvE3dccXWfPOW">
    <mxGraphModel dx="1372" dy="836" grid="0" gridSize="10" guides="1" tooltips="1" connect="1" arrows="1" fold="1" page="0" pageScale="1" pageWidth="850" pageHeight="1100" math="0" shadow="0">
      <root>
        <mxCell id="0" />
        <mxCell id="1" parent="0" />
        <mxCell id="IiO_jb-GbpXtugbxwC0Y-1" value="Inchiriere" style="swimlane;fontStyle=1;align=center;verticalAlign=top;childLayout=stackLayout;horizontal=1;startSize=26;horizontalStack=0;resizeParent=1;resizeParentMax=0;resizeLast=0;collapsible=1;marginBottom=0;whiteSpace=wrap;html=1;fillColor=#e1d5e7;strokeColor=#9673a6;" vertex="1" parent="1">
          <mxGeometry x="340" y="400" width="180" height="180" as="geometry" />
        </mxCell>
        <mxCell id="IiO_jb-GbpXtugbxwC0Y-2" value="&lt;div&gt;idInchiriere&lt;/div&gt;&lt;div&gt;idMasina&lt;/div&gt;&lt;div&gt;nume&lt;/div&gt;&lt;div&gt;prenume&lt;/div&gt;&lt;div&gt;CNP&lt;/div&gt;&lt;div&gt;dataPreluare&lt;/div&gt;&lt;div&gt;dataReturnare&lt;/div&gt;" style="text;strokeColor=none;fillColor=none;align=left;verticalAlign=top;spacingLeft=4;spacingRight=4;overflow=hidden;rotatable=0;points=[[0,0.5],[1,0.5]];portConstraint=eastwest;whiteSpace=wrap;html=1;" vertex="1" parent="IiO_jb-GbpXtugbxwC0Y-1">
          <mxGeometry y="26" width="180" height="104" as="geometry" />
        </mxCell>
        <mxCell id="IiO_jb-GbpXtugbxwC0Y-3" value="" style="line;strokeWidth=1;fillColor=none;align=left;verticalAlign=middle;spacingTop=-1;spacingLeft=3;spacingRight=3;rotatable=0;labelPosition=right;points=[];portConstraint=eastwest;strokeColor=inherit;" vertex="1" parent="IiO_jb-GbpXtugbxwC0Y-1">
          <mxGeometry y="130" width="180" height="8" as="geometry" />
        </mxCell>
        <mxCell id="IiO_jb-GbpXtugbxwC0Y-4" value="ConversieLaSir_PentruFisier()&lt;br style=&quot;border-color: var(--border-color);&quot;&gt;Info()" style="text;strokeColor=none;fillColor=none;align=left;verticalAlign=top;spacingLeft=4;spacingRight=4;overflow=hidden;rotatable=0;points=[[0,0.5],[1,0.5]];portConstraint=eastwest;whiteSpace=wrap;html=1;" vertex="1" parent="IiO_jb-GbpXtugbxwC0Y-1">
          <mxGeometry y="138" width="180" height="42" as="geometry" />
        </mxCell>
        <mxCell id="IiO_jb-GbpXtugbxwC0Y-5" value="Masina&lt;br&gt;" style="swimlane;fontStyle=1;align=center;verticalAlign=top;childLayout=stackLayout;horizontal=1;startSize=26;horizontalStack=0;resizeParent=1;resizeParentMax=0;resizeLast=0;collapsible=1;marginBottom=0;whiteSpace=wrap;html=1;fillColor=#d5e8d4;strokeColor=#82b366;" vertex="1" parent="1">
          <mxGeometry x="560" y="400" width="180" height="230" as="geometry" />
        </mxCell>
        <object label="&lt;div&gt;idMasina&lt;/div&gt;&lt;div&gt;marca&lt;/div&gt;&lt;div&gt;model&lt;/div&gt;&lt;div&gt;culoare&lt;/div&gt;&lt;div&gt;tip&lt;/div&gt;&lt;div&gt;motor&lt;/div&gt;&lt;div&gt;nrTrepteViteza&lt;/div&gt;&lt;div&gt;anFabricare&lt;/div&gt;&lt;div&gt;pretPerZi&lt;/div&gt;&lt;div&gt;status&lt;/div&gt;" idMasina="dasdas" id="IiO_jb-GbpXtugbxwC0Y-6">
          <mxCell style="text;strokeColor=none;fillColor=none;align=left;verticalAlign=top;spacingLeft=4;spacingRight=4;overflow=hidden;rotatable=0;points=[[0,0.5],[1,0.5]];portConstraint=eastwest;whiteSpace=wrap;html=1;" vertex="1" parent="IiO_jb-GbpXtugbxwC0Y-5">
            <mxGeometry y="26" width="180" height="154" as="geometry" />
          </mxCell>
        </object>
        <mxCell id="IiO_jb-GbpXtugbxwC0Y-7" value="" style="line;strokeWidth=1;fillColor=none;align=left;verticalAlign=middle;spacingTop=-1;spacingLeft=3;spacingRight=3;rotatable=0;labelPosition=right;points=[];portConstraint=eastwest;strokeColor=inherit;" vertex="1" parent="IiO_jb-GbpXtugbxwC0Y-5">
          <mxGeometry y="180" width="180" height="8" as="geometry" />
        </mxCell>
        <mxCell id="IiO_jb-GbpXtugbxwC0Y-8" value="ConversieLaSir_PentruFisier()&lt;br&gt;Info()" style="text;strokeColor=none;fillColor=none;align=left;verticalAlign=top;spacingLeft=4;spacingRight=4;overflow=hidden;rotatable=0;points=[[0,0.5],[1,0.5]];portConstraint=eastwest;whiteSpace=wrap;html=1;" vertex="1" parent="IiO_jb-GbpXtugbxwC0Y-5">
          <mxGeometry y="188" width="180" height="42" as="geometry" />
        </mxCell>
        <mxCell id="IiO_jb-GbpXtugbxwC0Y-15" value="AdministrareMasini" style="swimlane;fontStyle=1;align=center;verticalAlign=top;childLayout=stackLayout;horizontal=1;startSize=26;horizontalStack=0;resizeParent=1;resizeParentMax=0;resizeLast=0;collapsible=1;marginBottom=0;whiteSpace=wrap;html=1;fillColor=#f8cecc;strokeColor=#b85450;" vertex="1" parent="1">
          <mxGeometry x="550" y="220" width="180" height="140" as="geometry" />
        </mxCell>
        <mxCell id="IiO_jb-GbpXtugbxwC0Y-16" value="&lt;div&gt;NR_MAX_MASINI&lt;span style=&quot;color: rgb(228, 232, 236); font-family: ui-monospace, SFMono-Regular, &amp;quot;SF Mono&amp;quot;, Menlo, Consolas, &amp;quot;Liberation Mono&amp;quot;, monospace; background-color: rgb(13, 17, 23);&quot;&gt; &lt;/span&gt;&lt;br&gt;&lt;/div&gt;&lt;div&gt;numeFisier&lt;/div&gt;" style="text;strokeColor=none;fillColor=none;align=left;verticalAlign=top;spacingLeft=4;spacingRight=4;overflow=hidden;rotatable=0;points=[[0,0.5],[1,0.5]];portConstraint=eastwest;whiteSpace=wrap;html=1;" vertex="1" parent="IiO_jb-GbpXtugbxwC0Y-15">
          <mxGeometry y="26" width="180" height="34" as="geometry" />
        </mxCell>
        <mxCell id="IiO_jb-GbpXtugbxwC0Y-17" value="" style="line;strokeWidth=1;fillColor=none;align=left;verticalAlign=middle;spacingTop=-1;spacingLeft=3;spacingRight=3;rotatable=0;labelPosition=right;points=[];portConstraint=eastwest;strokeColor=inherit;" vertex="1" parent="IiO_jb-GbpXtugbxwC0Y-15">
          <mxGeometry y="60" width="180" height="8" as="geometry" />
        </mxCell>
        <mxCell id="IiO_jb-GbpXtugbxwC0Y-18" value="&lt;div&gt;AddMasina()&lt;/div&gt;&lt;div&gt;GetMasini()&lt;/div&gt;&lt;div&gt;GetMasina(nume, prenume)&lt;/div&gt;GetMasina&lt;span style=&quot;background-color: initial;&quot;&gt;(id)&lt;/span&gt;" style="text;strokeColor=none;fillColor=none;align=left;verticalAlign=top;spacingLeft=4;spacingRight=4;overflow=hidden;rotatable=0;points=[[0,0.5],[1,0.5]];portConstraint=eastwest;whiteSpace=wrap;html=1;" vertex="1" parent="IiO_jb-GbpXtugbxwC0Y-15">
          <mxGeometry y="68" width="180" height="72" as="geometry" />
        </mxCell>
        <mxCell id="IiO_jb-GbpXtugbxwC0Y-20" value="AdministrareInchirieri" style="swimlane;fontStyle=1;align=center;verticalAlign=top;childLayout=stackLayout;horizontal=1;startSize=26;horizontalStack=0;resizeParent=1;resizeParentMax=0;resizeLast=0;collapsible=1;marginBottom=0;whiteSpace=wrap;html=1;labelBackgroundColor=none;labelBorderColor=none;fillColor=#f8cecc;strokeColor=#b85450;" vertex="1" parent="1">
          <mxGeometry x="350" y="220" width="180" height="140" as="geometry" />
        </mxCell>
        <mxCell id="IiO_jb-GbpXtugbxwC0Y-21" value="&lt;div&gt;NR_MAX_INCHIRIERI&lt;/div&gt;&lt;div&gt;numeFisier&lt;/div&gt;" style="text;strokeColor=none;fillColor=none;align=left;verticalAlign=top;spacingLeft=4;spacingRight=4;overflow=hidden;rotatable=0;points=[[0,0.5],[1,0.5]];portConstraint=eastwest;whiteSpace=wrap;html=1;" vertex="1" parent="IiO_jb-GbpXtugbxwC0Y-20">
          <mxGeometry y="26" width="180" height="34" as="geometry" />
        </mxCell>
        <mxCell id="IiO_jb-GbpXtugbxwC0Y-22" value="" style="line;strokeWidth=1;fillColor=none;align=left;verticalAlign=middle;spacingTop=-1;spacingLeft=3;spacingRight=3;rotatable=0;labelPosition=right;points=[];portConstraint=eastwest;strokeColor=inherit;" vertex="1" parent="IiO_jb-GbpXtugbxwC0Y-20">
          <mxGeometry y="60" width="180" height="8" as="geometry" />
        </mxCell>
        <mxCell id="IiO_jb-GbpXtugbxwC0Y-23" value="&lt;div&gt;AddInchiriere()&lt;/div&gt;&lt;div&gt;GetInchirieri()&lt;/div&gt;&lt;div&gt;GetInchiriere(nume, prenume)&lt;/div&gt;&lt;div&gt;GetInchiriere(id)&lt;/div&gt;" style="text;strokeColor=none;fillColor=none;align=left;verticalAlign=top;spacingLeft=4;spacingRight=4;overflow=hidden;rotatable=0;points=[[0,0.5],[1,0.5]];portConstraint=eastwest;whiteSpace=wrap;html=1;" vertex="1" parent="IiO_jb-GbpXtugbxwC0Y-20">
          <mxGeometry y="68" width="180" height="72" as="geometry" />
        </mxCell>
      </root>
    </mxGraphModel>
  </diagram>
</mxfile>
